<mxfile host="app.diagrams.net" modified="2024-03-27T13:18:29.962Z" agent="Mozilla/5.0 (Windows NT 10.0; Win64; x64) AppleWebKit/537.36 (KHTML, like Gecko) Chrome/122.0.0.0 Safari/537.36 Edg/122.0.0.0" etag="qbbxQL9x5DtrThWm5jfj" version="24.1.0" type="github">
  <diagram name="Страница — 1" id="tHdYpgybZVhcoXe7FhwP">
    <mxGraphModel dx="1435" dy="743" grid="1" gridSize="10" guides="1" tooltips="1" connect="1" arrows="1" fold="1" page="1" pageScale="1" pageWidth="827" pageHeight="1169" math="0" shadow="0">
      <root>
        <mxCell id="0" />
        <mxCell id="1" parent="0" />
        <mxCell id="ejNz4gjbycefuItpM3Nw-11" value="" style="edgeStyle=orthogonalEdgeStyle;rounded=0;orthogonalLoop=1;jettySize=auto;html=1;" edge="1" parent="1" source="ejNz4gjbycefuItpM3Nw-1" target="ejNz4gjbycefuItpM3Nw-2">
          <mxGeometry relative="1" as="geometry" />
        </mxCell>
        <mxCell id="ejNz4gjbycefuItpM3Nw-1" value="Сложить все коробки в кучу" style="rounded=0;whiteSpace=wrap;html=1;" vertex="1" parent="1">
          <mxGeometry x="230" y="120" width="120" height="60" as="geometry" />
        </mxCell>
        <mxCell id="ejNz4gjbycefuItpM3Nw-12" value="" style="edgeStyle=orthogonalEdgeStyle;rounded=0;orthogonalLoop=1;jettySize=auto;html=1;" edge="1" parent="1" source="ejNz4gjbycefuItpM3Nw-2" target="ejNz4gjbycefuItpM3Nw-3">
          <mxGeometry relative="1" as="geometry" />
        </mxCell>
        <mxCell id="ejNz4gjbycefuItpM3Nw-2" value="пока коробки в куче" style="rhombus;whiteSpace=wrap;html=1;" vertex="1" parent="1">
          <mxGeometry x="190" y="220" width="200" height="80" as="geometry" />
        </mxCell>
        <mxCell id="ejNz4gjbycefuItpM3Nw-13" value="" style="edgeStyle=orthogonalEdgeStyle;rounded=0;orthogonalLoop=1;jettySize=auto;html=1;" edge="1" parent="1" source="ejNz4gjbycefuItpM3Nw-3" target="ejNz4gjbycefuItpM3Nw-4">
          <mxGeometry relative="1" as="geometry" />
        </mxCell>
        <mxCell id="ejNz4gjbycefuItpM3Nw-3" value="открыть коробку" style="rounded=0;whiteSpace=wrap;html=1;" vertex="1" parent="1">
          <mxGeometry x="230" y="340" width="120" height="60" as="geometry" />
        </mxCell>
        <mxCell id="ejNz4gjbycefuItpM3Nw-6" style="edgeStyle=orthogonalEdgeStyle;rounded=0;orthogonalLoop=1;jettySize=auto;html=1;exitX=1;exitY=0.5;exitDx=0;exitDy=0;entryX=0.5;entryY=0;entryDx=0;entryDy=0;" edge="1" parent="1" source="ejNz4gjbycefuItpM3Nw-4" target="ejNz4gjbycefuItpM3Nw-5">
          <mxGeometry relative="1" as="geometry" />
        </mxCell>
        <mxCell id="ejNz4gjbycefuItpM3Nw-9" style="edgeStyle=orthogonalEdgeStyle;rounded=0;orthogonalLoop=1;jettySize=auto;html=1;exitX=0;exitY=0.5;exitDx=0;exitDy=0;entryX=0.5;entryY=0;entryDx=0;entryDy=0;" edge="1" parent="1" source="ejNz4gjbycefuItpM3Nw-4" target="ejNz4gjbycefuItpM3Nw-7">
          <mxGeometry relative="1" as="geometry" />
        </mxCell>
        <mxCell id="ejNz4gjbycefuItpM3Nw-4" value="проверить есть ли ключ" style="rhombus;whiteSpace=wrap;html=1;" vertex="1" parent="1">
          <mxGeometry x="190" y="440" width="200" height="80" as="geometry" />
        </mxCell>
        <mxCell id="ejNz4gjbycefuItpM3Nw-5" value="ключ найден" style="rounded=0;whiteSpace=wrap;html=1;" vertex="1" parent="1">
          <mxGeometry x="390" y="520" width="120" height="60" as="geometry" />
        </mxCell>
        <mxCell id="ejNz4gjbycefuItpM3Nw-10" style="edgeStyle=orthogonalEdgeStyle;rounded=0;orthogonalLoop=1;jettySize=auto;html=1;exitX=0;exitY=0.5;exitDx=0;exitDy=0;entryX=0;entryY=0.5;entryDx=0;entryDy=0;" edge="1" parent="1" source="ejNz4gjbycefuItpM3Nw-7" target="ejNz4gjbycefuItpM3Nw-2">
          <mxGeometry relative="1" as="geometry" />
        </mxCell>
        <mxCell id="ejNz4gjbycefuItpM3Nw-7" value="если в коробке ещё одна коробка, то сложить её в кучу" style="rounded=0;whiteSpace=wrap;html=1;" vertex="1" parent="1">
          <mxGeometry x="70" y="520" width="120" height="60" as="geometry" />
        </mxCell>
        <mxCell id="ejNz4gjbycefuItpM3Nw-17" style="edgeStyle=orthogonalEdgeStyle;rounded=0;orthogonalLoop=1;jettySize=auto;html=1;exitX=0.5;exitY=1;exitDx=0;exitDy=0;entryX=1;entryY=0.5;entryDx=0;entryDy=0;" edge="1" parent="1" source="ejNz4gjbycefuItpM3Nw-15" target="ejNz4gjbycefuItpM3Nw-16">
          <mxGeometry relative="1" as="geometry" />
        </mxCell>
        <mxCell id="ejNz4gjbycefuItpM3Nw-20" style="edgeStyle=orthogonalEdgeStyle;rounded=0;orthogonalLoop=1;jettySize=auto;html=1;exitX=1;exitY=0.5;exitDx=0;exitDy=0;entryX=0.5;entryY=0;entryDx=0;entryDy=0;" edge="1" parent="1" source="ejNz4gjbycefuItpM3Nw-15" target="ejNz4gjbycefuItpM3Nw-19">
          <mxGeometry relative="1" as="geometry" />
        </mxCell>
        <mxCell id="ejNz4gjbycefuItpM3Nw-15" value="проверять каждый предмет в коробке" style="rhombus;whiteSpace=wrap;html=1;" vertex="1" parent="1">
          <mxGeometry x="200" y="680" width="240" height="80" as="geometry" />
        </mxCell>
        <mxCell id="ejNz4gjbycefuItpM3Nw-18" style="edgeStyle=orthogonalEdgeStyle;rounded=0;orthogonalLoop=1;jettySize=auto;html=1;exitX=0.5;exitY=0;exitDx=0;exitDy=0;entryX=0;entryY=0.5;entryDx=0;entryDy=0;" edge="1" parent="1" source="ejNz4gjbycefuItpM3Nw-16" target="ejNz4gjbycefuItpM3Nw-15">
          <mxGeometry relative="1" as="geometry" />
        </mxCell>
        <mxCell id="ejNz4gjbycefuItpM3Nw-16" value="Нашли коробку" style="rounded=0;whiteSpace=wrap;html=1;" vertex="1" parent="1">
          <mxGeometry x="80" y="800" width="120" height="60" as="geometry" />
        </mxCell>
        <mxCell id="ejNz4gjbycefuItpM3Nw-19" value="ключ найден" style="rounded=0;whiteSpace=wrap;html=1;" vertex="1" parent="1">
          <mxGeometry x="430" y="800" width="120" height="60" as="geometry" />
        </mxCell>
        <mxCell id="ejNz4gjbycefuItpM3Nw-23" value="" style="edgeStyle=orthogonalEdgeStyle;rounded=0;orthogonalLoop=1;jettySize=auto;html=1;" edge="1" parent="1" source="ejNz4gjbycefuItpM3Nw-21" target="ejNz4gjbycefuItpM3Nw-22">
          <mxGeometry relative="1" as="geometry" />
        </mxCell>
        <mxCell id="ejNz4gjbycefuItpM3Nw-21" value="final_countdown(n - 1)" style="rounded=0;whiteSpace=wrap;html=1;" vertex="1" parent="1">
          <mxGeometry x="170" y="960" width="140" height="60" as="geometry" />
        </mxCell>
        <mxCell id="ejNz4gjbycefuItpM3Nw-24" style="edgeStyle=orthogonalEdgeStyle;rounded=0;orthogonalLoop=1;jettySize=auto;html=1;exitX=0;exitY=0.5;exitDx=0;exitDy=0;entryX=0;entryY=0.5;entryDx=0;entryDy=0;" edge="1" parent="1" source="ejNz4gjbycefuItpM3Nw-22" target="ejNz4gjbycefuItpM3Nw-21">
          <mxGeometry relative="1" as="geometry" />
        </mxCell>
        <mxCell id="ejNz4gjbycefuItpM3Nw-22" value="print(n)" style="rounded=0;whiteSpace=wrap;html=1;" vertex="1" parent="1">
          <mxGeometry x="170" y="1060" width="140" height="60" as="geometry" />
        </mxCell>
        <mxCell id="ejNz4gjbycefuItpM3Nw-25" value="greeting()&lt;div&gt;name = &#39;Пётр&#39;&lt;/div&gt;" style="rounded=0;whiteSpace=wrap;html=1;" vertex="1" parent="1">
          <mxGeometry x="510" y="990" width="80" height="60" as="geometry" />
        </mxCell>
        <mxCell id="ejNz4gjbycefuItpM3Nw-26" value="greeting2()&lt;div&gt;name = &#39;Пётр&#39;&lt;/div&gt;" style="rounded=0;whiteSpace=wrap;html=1;" vertex="1" parent="1">
          <mxGeometry x="510" y="930" width="80" height="60" as="geometry" />
        </mxCell>
        <mxCell id="ejNz4gjbycefuItpM3Nw-29" value="greeting()&lt;div&gt;name = &#39;Пётр&#39;&lt;/div&gt;" style="rounded=0;whiteSpace=wrap;html=1;" vertex="1" parent="1">
          <mxGeometry x="750" y="990" width="120" height="60" as="geometry" />
        </mxCell>
        <mxCell id="ejNz4gjbycefuItpM3Nw-30" value="goodbye()" style="rounded=0;whiteSpace=wrap;html=1;" vertex="1" parent="1">
          <mxGeometry x="750" y="930" width="120" height="60" as="geometry" />
        </mxCell>
        <mxCell id="ejNz4gjbycefuItpM3Nw-31" value="" style="shape=flexArrow;endArrow=classic;html=1;rounded=0;endWidth=45;endSize=13.1;" edge="1" parent="1">
          <mxGeometry width="50" height="50" relative="1" as="geometry">
            <mxPoint x="730" y="989" as="sourcePoint" />
            <mxPoint x="750" y="989" as="targetPoint" />
          </mxGeometry>
        </mxCell>
        <mxCell id="ejNz4gjbycefuItpM3Nw-32" value="greeting()&lt;div&gt;name = &#39;Пётр&#39;&lt;/div&gt;" style="rounded=0;whiteSpace=wrap;html=1;" vertex="1" parent="1">
          <mxGeometry x="350" y="960" width="120" height="60" as="geometry" />
        </mxCell>
        <mxCell id="ejNz4gjbycefuItpM3Nw-34" value="" style="shape=flexArrow;endArrow=classic;html=1;rounded=0;endWidth=45;endSize=13.1;" edge="1" parent="1">
          <mxGeometry width="50" height="50" relative="1" as="geometry">
            <mxPoint x="490" y="990" as="sourcePoint" />
            <mxPoint x="510" y="990" as="targetPoint" />
          </mxGeometry>
        </mxCell>
        <mxCell id="ejNz4gjbycefuItpM3Nw-35" value="greeting()&lt;div&gt;name = &#39;Пётр&#39;&lt;/div&gt;" style="rounded=0;whiteSpace=wrap;html=1;" vertex="1" parent="1">
          <mxGeometry x="630" y="960" width="80" height="60" as="geometry" />
        </mxCell>
        <mxCell id="ejNz4gjbycefuItpM3Nw-36" value="" style="shape=flexArrow;endArrow=classic;html=1;rounded=0;endWidth=45;endSize=13.1;" edge="1" parent="1">
          <mxGeometry width="50" height="50" relative="1" as="geometry">
            <mxPoint x="610" y="989" as="sourcePoint" />
            <mxPoint x="630" y="989" as="targetPoint" />
          </mxGeometry>
        </mxCell>
      </root>
    </mxGraphModel>
  </diagram>
</mxfile>
